<svg width="43" height="41" viewBox="0 0 43 41" fill="none" xmlns="http://www.w3.org/2000/svg">
<path d="M6.86329 15.8767C7.5894 11.43 8.26534 7.20857 8.9708 2.9843C9.37518 0.554334 9.39584 0.557223 11.9284 0.554334C16.6039 0.554334 21.2853 0.695913 25.9519 0.513882C38.6442 0.0140201 47.4462 13.1029 40.6278 25.2296C37.0326 31.6267 31.3299 34.9928 23.7559 35.0535C22.28 35.0535 20.8042 35.0333 19.3283 35.0535C17.3271 35.0911 16.4976 35.7961 16.1021 37.7233C16.0077 38.1972 15.8955 38.6681 15.8453 39.1449C15.745 40.0752 15.2402 40.5029 14.2868 40.5C11.0399 40.4855 7.79307 40.5144 4.5462 40.4769C3.11463 40.4595 2.77518 39.925 3.03493 38.3474C3.81123 33.84 4.56391 29.3268 5.39629 24.828C5.57339 23.8745 5.33135 23.496 4.44289 23.1175C3.27668 22.6325 2.18416 21.9927 1.19602 21.2163C0.124556 20.3495 -0.247358 19.1244 0.162928 17.593C5.56749 21.4503 11.772 21.4099 17.8731 21.745C19.4523 21.8288 19.8921 22.3229 19.6678 23.8456C19.5556 24.6055 19.2693 25.3481 19.228 26.108C19.2247 26.3374 19.2714 26.5648 19.3651 26.775C19.4587 26.9853 19.5971 27.1736 19.7711 27.3273C20.0102 27.5065 20.6566 27.4227 20.9517 27.2175C25.0192 24.4302 29.065 21.6083 33.0891 18.7516C33.9983 18.1044 34.1016 17.1654 33.2899 16.3766C30.3913 13.5623 27.4593 10.7741 24.4938 8.01182C23.5492 7.14501 22.6755 7.47728 22.3892 8.76017C22.1383 9.88991 22.0941 11.0948 21.6749 12.1465C21.3414 12.9584 20.6625 14.0217 19.9275 14.2211C15.6772 15.3872 11.2768 15.9449 6.86329 15.8767Z" fill="white"/>
</svg>
