<svg width="130" height="41" viewBox="0 0 130 41" fill="none" xmlns="http://www.w3.org/2000/svg">
<path d="M6.86329 15.8767C7.5894 11.43 8.26534 7.20857 8.9708 2.9843C9.37518 0.554334 9.39584 0.557223 11.9284 0.554334C16.6039 0.554334 21.2853 0.695913 25.9519 0.513882C38.6442 0.0140201 47.4462 13.1029 40.6278 25.2296C37.0326 31.6267 31.3299 34.9928 23.7559 35.0535C22.28 35.0535 20.8042 35.0333 19.3283 35.0535C17.3271 35.0911 16.4976 35.7961 16.1021 37.7233C16.0077 38.1972 15.8955 38.6681 15.8453 39.1449C15.745 40.0752 15.2402 40.5029 14.2868 40.5C11.0399 40.4855 7.79307 40.5144 4.5462 40.4769C3.11463 40.4595 2.77518 39.925 3.03493 38.3474C3.81123 33.84 4.56391 29.3268 5.39629 24.828C5.57339 23.8745 5.33135 23.496 4.44289 23.1175C3.27668 22.6325 2.18416 21.9927 1.19602 21.2163C0.124556 20.3495 -0.247358 19.1244 0.162928 17.593C5.56749 21.4503 11.772 21.4099 17.8731 21.745C19.4523 21.8288 19.8921 22.3229 19.6678 23.8456C19.5556 24.6055 19.2693 25.3481 19.228 26.108C19.2247 26.3374 19.2714 26.5648 19.3651 26.775C19.4587 26.9853 19.5971 27.1736 19.7711 27.3273C20.0102 27.5065 20.6566 27.4227 20.9517 27.2175C25.0192 24.4302 29.065 21.6083 33.0891 18.7516C33.9983 18.1044 34.1016 17.1654 33.2899 16.3766C30.3913 13.5623 27.4593 10.7741 24.4938 8.01182C23.5492 7.14501 22.6755 7.47728 22.3892 8.76017C22.1383 9.88991 22.0941 11.0948 21.6749 12.1465C21.3414 12.9584 20.6625 14.0217 19.9275 14.2211C15.6772 15.3872 11.2768 15.9449 6.86329 15.8767Z" fill="white"/>
<path d="M55.6835 12.6345C55.4616 12.6345 55.3062 12.7676 55.2841 12.9895L52.6213 28.0784C52.5769 28.3225 52.7101 28.5 52.9542 28.5H55.7057C55.9497 28.5 56.0829 28.3669 56.1273 28.145L56.9039 23.7736H59.3669C62.9394 23.7736 65.1806 21.7322 65.7575 18.5813C66.401 15.0531 64.4483 12.6345 60.7205 12.6345H55.6835ZM59.4335 20.6005H57.4586L58.3018 15.8298H60.2323C61.719 15.8298 62.4735 16.673 62.2072 18.2928C61.9631 19.7795 61.009 20.6005 59.4335 20.6005ZM74.0219 28.0118C74.2216 27.9453 74.3104 27.7899 74.3548 27.5902L75.3533 21.9763C75.9524 18.6478 74.3991 16.6508 71.3814 16.6508C69.584 16.6508 67.9198 17.0502 66.8547 17.6937C66.7215 17.7825 66.7215 17.9378 66.7881 18.1375L67.476 19.957C67.5648 20.2011 67.7423 20.2455 67.9864 20.1345C68.652 19.8239 69.6506 19.6242 70.6269 19.6242C72.0248 19.6242 72.3355 20.2233 72.1358 21.3106L72.0914 21.6656C71.5367 21.5547 70.871 21.4881 70.2053 21.4881C67.365 21.4881 65.5455 22.4423 65.1683 24.5946C64.7245 27.0133 66.2999 28.7885 69.4065 28.7885C71.1151 28.7885 72.7571 28.4556 74.0219 28.0118ZM68.4745 24.7722C68.5855 24.1065 69.1624 23.7514 70.2497 23.7514C70.7379 23.7514 71.2482 23.818 71.6698 23.9068L71.3592 25.8373C70.9598 25.926 70.3384 26.0148 69.8281 26.0148C68.8517 26.0148 68.3192 25.6154 68.4745 24.7722ZM82.7842 24.9719C82.4513 25.1716 81.8966 25.3491 81.2975 25.3491C80.2989 25.3491 79.7442 24.7943 79.9883 23.4852L81.0978 17.3608C81.1422 17.1168 81.009 16.9614 80.7427 16.9614H78.1909C77.9469 16.9614 77.8137 17.0724 77.7915 17.2943L76.7264 23.1745C76.2161 26.1701 77.7028 28.1893 80.4321 28.1893C81.0978 28.1893 81.7191 28.0562 82.3182 27.8565C82.0741 29.4098 81.3419 30.0311 79.9439 30.0311C78.9676 30.0311 78.1688 29.7426 77.5696 29.321C77.3477 29.1879 77.1702 29.1879 77.0149 29.4098L75.6391 31.1627C75.506 31.3403 75.506 31.5622 75.6835 31.6953C76.6599 32.5385 77.9025 32.9823 79.6776 32.9823C83.3167 32.9823 84.9809 31.3846 85.691 27.4127L87.4662 17.3608C87.4884 17.1168 87.3552 16.9614 87.1111 16.9614H84.5593C84.3153 16.9614 84.1821 17.0724 84.1377 17.2943L82.7842 24.9719ZM90.9735 12.6345C90.7516 12.6345 90.5963 12.7676 90.5741 12.9895L87.9113 28.0784C87.867 28.3225 88.0001 28.5 88.2442 28.5H90.9957C91.2398 28.5 91.3729 28.3669 91.4173 28.145L92.1939 23.7736H94.657C98.2295 23.7736 100.471 21.7322 101.048 18.5813C101.691 15.0531 99.7384 12.6345 96.0105 12.6345H90.9735ZM94.7235 20.6005H92.7487L93.5919 15.8298H95.5224C97.0091 15.8298 97.7635 16.673 97.4972 18.2928C97.2531 19.7795 96.299 20.6005 94.7235 20.6005ZM109.312 28.0118C109.512 27.9453 109.6 27.7899 109.645 27.5902L110.643 21.9763C111.242 18.6478 109.689 16.6508 106.671 16.6508C104.874 16.6508 103.21 17.0502 102.145 17.6937C102.012 17.7825 102.012 17.9378 102.078 18.1375L102.766 19.957C102.855 20.2011 103.032 20.2455 103.276 20.1345C103.942 19.8239 104.941 19.6242 105.917 19.6242C107.315 19.6242 107.626 20.2233 107.426 21.3106L107.381 21.6656C106.827 21.5547 106.161 21.4881 105.495 21.4881C102.655 21.4881 100.836 22.4423 100.458 24.5946C100.015 27.0133 101.59 28.7885 104.697 28.7885C106.405 28.7885 108.047 28.4556 109.312 28.0118ZM103.765 24.7722C103.876 24.1065 104.452 23.7514 105.54 23.7514C106.028 23.7514 106.538 23.818 106.96 23.9068L106.649 25.8373C106.25 25.926 105.628 26.0148 105.118 26.0148C104.142 26.0148 103.609 25.6154 103.765 24.7722ZM117.786 20.0458C118.03 20.0458 118.163 19.9348 118.207 19.6908L118.562 17.6493C118.607 17.4052 118.474 17.2277 118.207 17.2277H116.432L116.565 14.5872C116.588 14.3431 116.454 14.1877 116.188 14.1877H114.014C113.769 14.1877 113.636 14.3209 113.592 14.5428L111.928 24.0621C111.351 27.3018 112.926 28.7885 115.389 28.7885C115.767 28.7885 116.188 28.7441 116.521 28.6775C116.743 28.6553 116.854 28.5222 116.898 28.3003L117.253 26.2367C117.32 25.9482 117.164 25.8373 116.898 25.8594C116.676 25.8594 116.477 25.8594 116.299 25.8594C115.389 25.8594 115.034 25.3269 115.212 24.3284L115.966 20.0458H117.786ZM123.402 17.1168L124.113 13.0561C124.157 12.812 124.024 12.6345 123.78 12.6345H121.228C120.984 12.6345 120.851 12.7676 120.828 12.9895L118.144 28.0784C118.121 28.3225 118.255 28.5 118.499 28.5H121.05C121.294 28.5 121.428 28.3669 121.472 28.145L122.914 19.9348C123.314 19.7351 123.868 19.5576 124.401 19.5576C125.599 19.5576 126.021 20.2233 125.777 21.5103L124.645 28.0784C124.601 28.3225 124.734 28.5 125 28.5H127.552C127.774 28.5 127.929 28.3669 127.951 28.145L129.061 21.9097C129.638 18.6257 128.173 16.6508 125.577 16.6508C124.712 16.6508 124.002 16.8283 123.402 17.1168Z" fill="white"/>
</svg>
