<svg width="110" height="30" viewBox="0 0 130 40" fill="none" xmlns="http://www.w3.org/2000/svg">
<path d="M6.86329 15.3767C7.5894 10.93 8.26534 6.70857 8.9708 2.4843C9.37518 0.054334 9.39584 0.0572232 11.9284 0.0543338C16.6039 0.0543338 21.2853 0.195913 25.9519 0.0138825C38.6442 -0.48598 47.4462 12.6029 40.6278 24.7296C37.0326 31.1267 31.3299 34.4928 23.7559 34.5535C22.28 34.5535 20.8042 34.5333 19.3283 34.5535C17.3271 34.5911 16.4976 35.2961 16.1021 37.2233C16.0077 37.6972 15.8955 38.1681 15.8453 38.6449C15.745 39.5752 15.2402 40.0029 14.2868 40C11.0399 39.9855 7.79307 40.0144 4.5462 39.9769C3.11463 39.9595 2.77518 39.425 3.03493 37.8474C3.81123 33.34 4.56391 28.8268 5.39629 24.328C5.57339 23.3745 5.33135 22.996 4.44289 22.6175C3.27668 22.1325 2.18416 21.4927 1.19602 20.7163C0.124556 19.8495 -0.247358 18.6244 0.162928 17.093C5.56749 20.9503 11.772 20.9099 17.8731 21.245C19.4523 21.3288 19.8921 21.8229 19.6678 23.3456C19.5556 24.1055 19.2693 24.8481 19.228 25.608C19.2247 25.8374 19.2714 26.0648 19.3651 26.275C19.4587 26.4853 19.5971 26.6736 19.7711 26.8273C20.0102 27.0065 20.6566 26.9227 20.9517 26.7175C25.0192 23.9302 29.065 21.1083 33.0891 18.2516C33.9983 17.6044 34.1016 16.6654 33.2899 15.8766C30.3913 13.0623 27.4593 10.2741 24.4938 7.51182C23.5492 6.64501 22.6755 6.97728 22.3892 8.26017C22.1383 9.38991 22.0941 10.5948 21.6749 11.6465C21.3414 12.4584 20.6625 13.5217 19.9275 13.7211C15.6772 14.8872 11.2768 15.4449 6.86329 15.3767Z" fill="#0064FF"/>
<path d="M55.6835 12.1345C55.4616 12.1345 55.3062 12.2676 55.2841 12.4895L52.6213 27.5784C52.5769 27.8225 52.7101 28 52.9542 28H55.7057C55.9497 28 56.0829 27.8669 56.1273 27.645L56.9039 23.2736H59.3669C62.9394 23.2736 65.1806 21.2322 65.7575 18.0813C66.401 14.5531 64.4483 12.1345 60.7205 12.1345H55.6835ZM59.4335 20.1005H57.4586L58.3018 15.3298H60.2323C61.719 15.3298 62.4735 16.173 62.2072 17.7928C61.9631 19.2795 61.009 20.1005 59.4335 20.1005ZM74.0219 27.5118C74.2216 27.4453 74.3104 27.2899 74.3548 27.0902L75.3533 21.4763C75.9524 18.1478 74.3991 16.1508 71.3814 16.1508C69.584 16.1508 67.9198 16.5502 66.8547 17.1937C66.7215 17.2825 66.7215 17.4378 66.7881 17.6375L67.476 19.457C67.5648 19.7011 67.7423 19.7455 67.9864 19.6345C68.652 19.3239 69.6506 19.1242 70.6269 19.1242C72.0248 19.1242 72.3355 19.7233 72.1358 20.8106L72.0914 21.1656C71.5367 21.0547 70.871 20.9881 70.2053 20.9881C67.365 20.9881 65.5455 21.9423 65.1683 24.0946C64.7245 26.5133 66.2999 28.2885 69.4065 28.2885C71.1151 28.2885 72.7571 27.9556 74.0219 27.5118ZM68.4745 24.2722C68.5855 23.6065 69.1624 23.2514 70.2497 23.2514C70.7379 23.2514 71.2482 23.318 71.6698 23.4068L71.3592 25.3373C70.9598 25.426 70.3384 25.5148 69.8281 25.5148C68.8517 25.5148 68.3192 25.1154 68.4745 24.2722ZM82.7842 24.4719C82.4513 24.6716 81.8966 24.8491 81.2975 24.8491C80.2989 24.8491 79.7442 24.2943 79.9883 22.9852L81.0978 16.8608C81.1422 16.6168 81.009 16.4614 80.7427 16.4614H78.1909C77.9469 16.4614 77.8137 16.5724 77.7915 16.7943L76.7264 22.6745C76.2161 25.6701 77.7028 27.6893 80.4321 27.6893C81.0978 27.6893 81.7191 27.5562 82.3182 27.3565C82.0741 28.9098 81.3419 29.5311 79.9439 29.5311C78.9676 29.5311 78.1688 29.2426 77.5696 28.821C77.3477 28.6879 77.1702 28.6879 77.0149 28.9098L75.6391 30.6627C75.506 30.8403 75.506 31.0622 75.6835 31.1953C76.6599 32.0385 77.9025 32.4823 79.6776 32.4823C83.3167 32.4823 84.9809 30.8846 85.691 26.9127L87.4662 16.8608C87.4884 16.6168 87.3552 16.4614 87.1111 16.4614H84.5593C84.3153 16.4614 84.1821 16.5724 84.1377 16.7943L82.7842 24.4719ZM90.9735 12.1345C90.7516 12.1345 90.5963 12.2676 90.5741 12.4895L87.9113 27.5784C87.867 27.8225 88.0001 28 88.2442 28H90.9957C91.2398 28 91.3729 27.8669 91.4173 27.645L92.1939 23.2736H94.657C98.2295 23.2736 100.471 21.2322 101.048 18.0813C101.691 14.5531 99.7384 12.1345 96.0105 12.1345H90.9735ZM94.7235 20.1005H92.7487L93.5919 15.3298H95.5224C97.0091 15.3298 97.7635 16.173 97.4972 17.7928C97.2531 19.2795 96.299 20.1005 94.7235 20.1005ZM109.312 27.5118C109.512 27.4453 109.6 27.2899 109.645 27.0902L110.643 21.4763C111.242 18.1478 109.689 16.1508 106.671 16.1508C104.874 16.1508 103.21 16.5502 102.145 17.1937C102.012 17.2825 102.012 17.4378 102.078 17.6375L102.766 19.457C102.855 19.7011 103.032 19.7455 103.276 19.6345C103.942 19.3239 104.941 19.1242 105.917 19.1242C107.315 19.1242 107.626 19.7233 107.426 20.8106L107.381 21.1656C106.827 21.0547 106.161 20.9881 105.495 20.9881C102.655 20.9881 100.836 21.9423 100.458 24.0946C100.015 26.5133 101.59 28.2885 104.697 28.2885C106.405 28.2885 108.047 27.9556 109.312 27.5118ZM103.765 24.2722C103.876 23.6065 104.452 23.2514 105.54 23.2514C106.028 23.2514 106.538 23.318 106.96 23.4068L106.649 25.3373C106.25 25.426 105.628 25.5148 105.118 25.5148C104.142 25.5148 103.609 25.1154 103.765 24.2722ZM117.786 19.5458C118.03 19.5458 118.163 19.4348 118.207 19.1908L118.562 17.1493C118.607 16.9052 118.474 16.7277 118.207 16.7277H116.432L116.565 14.0872C116.588 13.8431 116.454 13.6877 116.188 13.6877H114.014C113.769 13.6877 113.636 13.8209 113.592 14.0428L111.928 23.5621C111.351 26.8018 112.926 28.2885 115.389 28.2885C115.767 28.2885 116.188 28.2441 116.521 28.1775C116.743 28.1553 116.854 28.0222 116.898 27.8003L117.253 25.7367C117.32 25.4482 117.164 25.3373 116.898 25.3594C116.676 25.3594 116.477 25.3594 116.299 25.3594C115.389 25.3594 115.034 24.8269 115.212 23.8284L115.966 19.5458H117.786ZM123.402 16.6168L124.113 12.5561C124.157 12.312 124.024 12.1345 123.78 12.1345H121.228C120.984 12.1345 120.851 12.2676 120.828 12.4895L118.144 27.5784C118.121 27.8225 118.255 28 118.499 28H121.05C121.294 28 121.428 27.8669 121.472 27.645L122.914 19.4348C123.314 19.2351 123.868 19.0576 124.401 19.0576C125.599 19.0576 126.021 19.7233 125.777 21.0103L124.645 27.5784C124.601 27.8225 124.734 28 125 28H127.552C127.774 28 127.929 27.8669 127.951 27.645L129.061 21.4097C129.638 18.1257 128.173 16.1508 125.577 16.1508C124.712 16.1508 124.002 16.3283 123.402 16.6168Z" fill="#0457D8"/>
</svg>
